<?xml version="1.0" encoding="UTF-8" standalone="no"?>
<!-- Created with Inkscape (http://www.inkscape.org/) -->

<svg
   xmlns:dc="http://purl.org/dc/elements/1.1/"
   xmlns:cc="http://creativecommons.org/ns#"
   xmlns:rdf="http://www.w3.org/1999/02/22-rdf-syntax-ns#"
   xmlns:svg="http://www.w3.org/2000/svg"
   xmlns="http://www.w3.org/2000/svg"
   xmlns:sodipodi="http://sodipodi.sourceforge.net/DTD/sodipodi-0.dtd"
   xmlns:inkscape="http://www.inkscape.org/namespaces/inkscape"
   width="380"
   height="336"
   id="svg2"
   version="1.1"
   inkscape:version="0.48.5 r10040"
   sodipodi:docname="mydog-colored.svg">
  <defs
     id="defs4" />
  <sodipodi:namedview
     id="base"
     pagecolor="#ffffff"
     bordercolor="#666666"
     borderopacity="1.0"
     inkscape:pageopacity="0.0"
     inkscape:pageshadow="2"
     inkscape:zoom="4"
     inkscape:cx="172.51263"
     inkscape:cy="157.14286"
     inkscape:document-units="px"
     inkscape:current-layer="Color-Fills"
     showgrid="false"
     fit-margin-top="0"
     fit-margin-left="0"
     fit-margin-right="0"
     fit-margin-bottom="0"
     inkscape:window-width="2205"
     inkscape:window-height="1297"
     inkscape:window-x="172"
     inkscape:window-y="36"
     inkscape:window-maximized="0"
     showguides="true"
     inkscape:guide-bbox="true" />
  <metadata
     id="metadata7">
    <rdf:RDF>
      <cc:Work
         rdf:about="">
        <dc:format>image/svg+xml</dc:format>
        <dc:type
           rdf:resource="http://purl.org/dc/dcmitype/StillImage" />
        <dc:title></dc:title>
      </cc:Work>
    </rdf:RDF>
  </metadata>
  <g
     inkscape:groupmode="layer"
     id="Outline"
     inkscape:label="Outline"
     style="display:inline">
    <path
       transform="translate(-177.69553,-314.63614)"
       style="fill:#000000;display:inline"
       d="m 234.40469,605.55294 c -2.15073,-2.15072 -2.02845,-2.52157 2.79767,-8.48462 1.82638,-2.25665 3.3207,-4.39415 3.3207,-4.75 0,-0.35586 -8.2882,-0.64701 -18.41821,-0.64701 -10.13002,0 -19.16449,-0.28637 -20.07661,-0.63638 -2.98238,-1.14445 -3.70085,-5.56202 -4.53173,-27.86362 -0.4508,-12.1 -1.12201,-22.97536 -1.49159,-24.16748 -0.57521,-1.85538 0.64323,-3.15127 8.4621,-9 6.26887,-4.68928 9.28597,-7.61673 9.61833,-9.33252 2.26689,-11.70279 5.06508,-20.99672 6.32357,-21.00313 0.33778,-0.002 4.21414,-2.94005 8.61414,-6.52961 14.29211,-11.65965 18.72026,-14.73112 37.58705,-26.07123 10.22471,-6.14569 23.50046,-14.45397 29.50167,-18.46285 6.0012,-4.00888 15.63628,-10.43523 21.41128,-14.28076 13.55759,-9.02793 34.79342,-24.8252 37.99716,-28.26598 1.37343,-1.47506 8.57343,-6.74586 16,-11.7129 7.42656,-4.96704 16.20284,-11.11749 19.50284,-13.66768 16.15856,-12.48708 28.74531,-18.54976 45.5,-21.91607 l 8.5,-1.7078 -0.0653,-5.941 c -0.0359,-3.26754 -0.70472,-7.42374 -1.48622,-9.23598 -1.24097,-2.87773 -1.2327,-3.41399 0.0653,-4.23469 2.59299,-1.63948 8.46941,-1.10046 10.70454,0.98189 2.16645,2.01835 4.28168,9.65893 4.28168,15.46618 l 0,3.31995 8.81772,1.13083 c 4.84975,0.62196 9.93933,1.13083 11.31017,1.13083 1.4419,0 3.83692,1.31448 5.68227,3.11866 2.4891,2.43355 3.18984,3.96059 3.18984,6.95121 0,2.1079 0.62719,6.24049 1.39375,9.18353 3.6676,14.08086 2.8613,32.26876 -1.96539,44.33357 l -2.56861,6.42053 3.62457,5.96669 c 1.99352,3.28168 5.65336,10.14249 8.13299,15.24625 2.47963,5.10376 5.21075,10.58186 6.06914,12.17356 1.23229,2.28501 1.34015,3.61269 0.51255,6.30925 -0.84833,2.76411 -0.69856,4.19612 0.78556,7.51099 1.00854,2.25266 1.60803,4.68387 1.3322,5.40269 -0.73294,1.90999 -3.94338,2.65327 -6.21325,1.43847 -2.66904,-1.42843 -4.10351,-1.32719 -4.10351,0.28961 0,0.73976 -0.94458,2.19985 -2.09906,3.24464 -2.07497,1.87782 -2.12452,1.86772 -4.31579,-0.8804 l -2.21672,-2.78004 -2.73574,2.5354 c -2.97427,2.75646 -4.71666,3.096 -7.69843,1.50021 -3.53794,-1.89345 -1.98823,-11.11196 2.78059,-16.5405 1.00288,-1.14162 3.05231,-2.88088 4.55429,-3.86501 1.50197,-0.98413 2.73086,-2.38905 2.73086,-3.12205 0,-2.22359 -6.13267,-18.43726 -6.97372,-18.43726 -0.43151,0 -2.93891,3.83847 -5.57199,8.52993 -2.76386,4.92448 -8.63856,12.84977 -13.89861,18.75 -5.01116,5.62104 -13.57198,15.84507 -19.02405,22.72007 -5.45207,6.875 -14.77708,17.98826 -20.72224,24.69614 -5.94516,6.70788 -10.80939,12.85538 -10.80939,13.66111 0,1.51126 5.45201,6.64275 7.05767,6.64275 2.06214,0 2.0307,4.90646 -0.0577,9 -2.76405,5.41798 -2.08675,7.97488 3.05666,11.53927 7.49182,5.19183 8.85975,9.63523 4.35354,14.14144 -2.44257,2.44257 -2.98264,2.55329 -9.5,1.94756 -6.20524,-0.57672 -6.91017,-0.46019 -6.91017,1.14224 0,2.66237 -2.85406,6.22949 -4.98423,6.22949 -1.02895,0 -2.97108,-1.40587 -4.31584,-3.12417 l -2.44503,-3.12416 -2.99129,2.21156 c -1.68295,1.24426 -4.03049,2.06399 -5.36724,1.87416 -7.32399,-1.04003 0.17235,-14.8291 10.76987,-19.81053 l 4.57502,-2.15051 -0.67654,-5.18818 c -0.93234,-7.14984 -1.62979,-9.68817 -2.66199,-9.68817 -0.48425,0 -3.15256,3.12386 -5.92958,6.94192 -6.24855,8.59097 -9.99444,11.05808 -16.78986,11.05808 l -5.08064,0 -6.15076,9.49477 c -3.38292,5.22213 -7.49054,10.62213 -9.12805,12 -2.89119,2.43278 -3.41608,2.50522 -18.15057,2.50498 -8.3453,-1.3e-4 -30.69827,0.70225 -49.67327,1.56085 -37.88212,1.71412 -40.7858,2.27318 -33.65598,6.47987 4.1829,2.46797 4.75472,5.38108 1.77788,9.05732 -1.6748,2.06829 -2.82027,2.34204 -10.58189,2.52889 -7.47396,0.17993 -8.97997,-0.0666 -10.65838,-1.74505 z m 28.11837,-20.87307 c 49.79391,-2.56722 58.73192,-3.12813 62,-3.89086 l 3.5,-0.81686 -3.87338,-0.78485 c -2.13035,-0.43168 -7.30535,-0.52268 -11.5,-0.20223 -4.19464,0.32046 -13.70162,1.0604 -21.12662,1.64433 -18.40863,1.44773 -81.16024,2.98772 -82.92567,2.03508 -1.1167,-0.60257 -1.45868,-3.77349 -1.57793,-14.63123 -0.0837,-7.62407 -0.50042,-15.06424 -0.92595,-16.53371 -0.68053,-2.35003 -0.37528,-2.8778 2.5349,-4.38271 1.89672,-0.98083 8.44767,-2.28581 15.35162,-3.05812 11.76411,-1.31598 53.60026,-2.98878 66.54303,-2.66069 8.55446,0.21685 27.40873,-1.43407 37.78986,-3.30895 8.06078,-1.45581 8.37166,-1.43894 11.25,0.61062 1.62808,1.1593 3.00524,2.86467 3.06035,3.78971 0.0551,0.92505 0.27464,9.07753 0.48783,18.11662 0.34123,14.46763 0.18229,16.66159 -1.3279,18.33034 -1.65582,1.82965 -1.59449,1.88413 1.76217,1.56529 l 3.47769,-0.33034 0,-21.66821 c 0,-11.91752 -0.32107,-21.98858 -0.71348,-22.38015 -1.01182,-1.00963 -60.21402,-0.57368 -78.89175,0.58094 -8.58288,0.53058 -22.25599,1.8653 -30.38469,2.96605 -8.1287,1.10076 -19.28993,2.00137 -24.80273,2.00137 l -10.02329,0 0.65526,18.84301 c 0.67516,19.41516 1.59931,24.67467 4.48814,25.54279 2.0955,0.62971 29.52745,-0.055 55.17254,-1.37724 z m -42,-10.56758 c 0,-0.79254 -0.45,-1.44098 -1,-1.44098 -0.55,0 -1,0.92656 -1,2.05902 0,1.13246 0.45,1.7809 1,1.44098 0.55,-0.33992 1,-1.26648 1,-2.05902 z m 10.04165,1.00883 c 1.05985,-1.27704 1.01023,-1.8265 -0.28159,-3.11832 -1.81649,-1.81649 -3.76006,-1.00968 -3.76006,1.56086 0,3.27624 1.98148,4.03981 4.04165,1.55746 z m 13.45835,-0.94981 c 0,-2.64895 -5.91097,-3.47736 -6.8756,-0.9636 -0.97042,2.52888 0.25504,3.60624 3.71945,3.26996 2.38736,-0.23174 3.15615,-0.79353 3.15615,-2.30636 z m 11.38989,1.13268 c 0.8627,-1.03949 0.77523,-1.66572 -0.36482,-2.61188 -1.76075,-1.46128 -4.52507,-0.67864 -4.52507,1.28115 0,2.85495 2.95703,3.65968 4.88989,1.33073 z m 108.63538,-11.67334 c 5.94375,-9.56427 6.47314,-10.87141 6.45529,-15.93902 -0.0261,-7.41538 -2.57261,-25.01237 -3.79672,-26.23648 -0.64169,-0.64169 -2.37638,0.8697 -5.01268,4.36744 -2.21728,2.9418 -4.99196,6.40583 -6.16597,7.69785 -2.06808,2.27597 -2.11816,2.96109 -1.60825,22 0.28946,10.80798 0.54357,20.0848 0.56468,20.61516 0.0734,1.84474 3.12842,-2.14982 9.56365,-12.50495 z m -99.02527,10.02696 c 0,-2.1435 -2.90567,-1.8339 -3.32712,0.35451 -0.25736,1.3364 0.14991,1.74367 1.48631,1.48631 1.01244,-0.19498 1.84081,-1.02335 1.84081,-1.84082 z m 9.87615,0.47585 c 0.34197,-0.89117 -0.0618,-1.78803 -0.96023,-2.13279 -1.86736,-0.71657 -3.91072,1.06102 -2.96977,2.58351 0.98128,1.58774 3.24751,1.32783 3.93,-0.45072 z m 9.94851,-0.12014 c 0.36189,-0.3619 0.15219,-1.26744 -0.46601,-2.01233 -0.8443,-1.01731 -1.46153,-1.07423 -2.48032,-0.2287 -0.74597,0.6191 -1.10971,1.52465 -0.8083,2.01233 0.64272,1.03995 2.81129,1.17204 3.75463,0.2287 z m 118.08605,-2.46347 c 0.85645,-1.71681 1.31285,-3.51681 1.01422,-4 -0.88186,-1.42689 -5.07621,-1.00365 -6.44926,0.65078 -1.05291,1.26867 -0.87364,1.95039 1.05187,4 1.2766,1.35887 2.43469,2.47068 2.57353,2.47068 0.13885,0 0.95318,-1.40466 1.80964,-3.12146 z m -105.41071,0.55504 c 0,-1.11013 -0.77861,-1.47425 -2.67288,-1.25 -3.89313,0.46088 -4.23642,2.81642 -0.41045,2.81642 2.13218,0 3.08333,-0.48321 3.08333,-1.56642 z m 13,-0.87456 c 0,-2.04816 -1.51041,-2.72 -4.45401,-1.98121 -3.89779,0.97829 -3.2165,3.42219 0.95401,3.42219 2.38074,0 3.5,-0.46081 3.5,-1.44098 z m 10.86888,0.099 c 1.31068,-1.57931 0.50853,-2.65802 -1.97653,-2.65802 -2.35925,0 -3.50247,1.99946 -1.77047,3.09649 1.87876,1.18999 2.45106,1.12301 3.747,-0.4385 z m 11.11581,0.092 c -0.0281,-2.29116 -1.76353,-4.04885 -3.38377,-3.4271 -0.8805,0.33788 -1.60092,1.52845 -1.60092,2.64572 0,1.50014 0.65379,2.03138 2.5,2.03138 1.375,0 2.49311,-0.5625 2.48469,-1.25 z m 85.87592,-0.082 c 1.36769,-1.64798 0.0672,-3.58255 -4.80489,-7.14765 -4.08892,-2.99208 -5.05572,-3.12982 -5.05572,-0.72037 0,0.99 -0.48294,2.28294 -1.0732,2.8732 -0.76427,0.76427 -0.11658,1.64947 2.25,3.0751 3.15322,1.89951 5.55905,2.99767 6.95076,3.17275 0.34515,0.0434 1.12503,-0.52047 1.73305,-1.25309 z m -120.10553,-7.19665 c 7.84029,-0.80922 16.39029,-1.52455 19,-1.58962 4.23741,-0.10566 4.42405,-0.19997 1.74492,-0.88169 -4.832,-1.22954 -16.5357,-1.08322 -39.5,0.49383 -25.47269,1.7493 -32.53195,2.57684 -29.19142,3.42206 3.89027,0.98431 32.87448,0.11104 47.9465,-1.44458 z m -53.25508,-4.99716 c 17.70345,-1.84731 68.96867,-4.48598 81.5,-4.19489 l 9.5,0.22068 0.29791,-5.12463 c 0.34592,-5.9505 -0.55495,-6.69369 -6.42657,-5.3017 -11.67666,2.76819 -31.69839,3.65973 -87.38096,3.89099 l -8.50963,0.0353 -5.24037,4.86854 c -2.88221,2.6777 -5.24038,5.1214 -5.24038,5.43045 0,0.55147 3.03905,1.32763 6,1.53236 0.825,0.0571 7.8,-0.55367 15.5,-1.35714 z m -25.38398,-4.05938 c 2.68619,-1.97184 4.88398,-4.02441 4.88398,-4.56127 0,-0.87653 -7.25806,-0.41086 -10.75,0.6897 -1.99283,0.62809 -1.50501,7.45674 0.53269,7.45674 0.24715,0 2.64715,-1.61333 5.33333,-3.58517 z m 162.58649,0.33517 c 3.54324,-3.88676 4.70967,-9.48859 4.73705,-22.75 0.0468,-22.67542 -3.47618,-31.89579 -14.85303,-38.87325 l -5.91347,-3.62675 -21.58653,0.0898 c -45.96182,0.19117 -106.597,6.65171 -113.91225,12.13709 -2.8081,2.10566 -8.59761,12.63163 -7.20342,13.09659 0.53347,0.1779 2.51204,-0.85275 4.39683,-2.29035 5.56498,-4.24462 7.89306,-4.63479 47.63231,-7.98278 34.61063,-2.91592 44.84154,-3.54204 67,-4.10032 18.93345,-0.47703 23.08359,-0.32226 26.18162,0.97639 2.02489,0.84881 3.9848,2.03385 4.35536,2.63343 0.37056,0.59957 1.08176,9.71889 1.58045,20.26515 0.90333,19.10355 0.91668,19.18316 3.58338,21.36307 2.87134,2.34719 2.69643,3.55942 -1.30752,9.06194 -1.57643,2.16643 -1.54633,2.25 0.81042,2.25 1.34622,0 3.37068,-1.0125 4.4988,-2.25 z m 27.32704,-6.82135 c 1.14156,-2.75595 1.05247,-3.29108 -0.86757,-5.21111 -2.88038,-2.88038 -4.06111,-1.26219 -2.94233,4.03246 1.06476,5.03896 2.08072,5.35326 3.8099,1.17865 z M 398.2295,535.92131 c 1.67264,-2.0625 8.09227,-9.375 14.26585,-16.25 6.17357,-6.875 15.99212,-18.575 21.819,-26 5.82688,-7.425 13.34013,-16.65 16.69612,-20.5 12.49849,-14.33833 19.43984,-25.15837 24.05726,-37.5 0.92598,-2.475 3.18332,-8.1 5.01631,-12.5 4.44861,-10.67867 5.68938,-18.98374 4.5038,-30.14608 -0.51722,-4.86966 -1.38118,-10.20392 -1.91992,-11.85392 -0.53873,-1.65 -1.24624,-4.22137 -1.57224,-5.71416 -0.46889,-2.14707 -1.4472,-2.94425 -4.68222,-3.81535 -3.3678,-0.90686 -3.99767,-1.45228 -3.56921,-3.09073 0.38577,-1.47517 -0.17021,-2.26695 -2.15046,-3.06255 -4.09438,-1.64498 -31.48517,-1.18722 -38.67073,0.64628 -7.73541,1.9738 -22.09304,9.16318 -31,15.5228 -3.85,2.74893 -13.525,9.3347 -21.5,14.63505 -7.975,5.30035 -16.75,11.73729 -19.5,14.3043 -4.4438,4.14811 -13.33203,10.82623 -31.37622,23.57436 -13.45162,9.5035 -47.50048,31.39304 -59.53907,38.27685 -7.19659,4.1151 -16.41841,10.01125 -20.49293,13.10257 -6.52162,4.94793 -7.12,5.66279 -5,5.97332 1.32452,0.19401 4.65822,-0.13957 7.40822,-0.74127 15.33995,-3.35642 71.99127,-7.36649 98.03144,-6.93916 19.52588,0.32043 20.08356,0.38833 25.15617,3.06292 8.68027,4.57678 14.59775,11.34446 17.40013,19.90013 2.03848,6.22348 2.41226,9.3403 2.41226,20.11477 0,7.01257 0.26219,12.75007 0.58264,12.75 0.32044,-7e-5 1.95116,-1.68763 3.6238,-3.75013 z m -169.70644,-2.26399 c 5.225,-0.53415 14.45,-1.65956 20.5,-2.50093 7.48296,-1.04064 25.69069,-1.81149 56.94703,-2.41095 l 45.94703,-0.8812 2.80048,-3.34646 c 4.14452,-4.95254 8.59529,-12.06827 8.97346,-14.34647 0.31972,-1.92602 -0.29814,-2.01009 -16.70317,-2.27269 -9.36934,-0.14998 -19.49434,0.13491 -22.5,0.6331 -4.47372,0.74151 -4.82508,0.92699 -1.93734,1.02269 4.25954,0.14116 7.97251,2.53267 7.97251,5.13506 0,2.3742 -6.09325,4.295 -13.9745,4.40526 -6.47554,0.0906 -7.47766,-1.54026 -3.91089,-6.36456 1.23383,-1.66885 2.04497,-3.23261 1.80254,-3.47504 -0.47857,-0.47858 -15.86216,0.50408 -44.91715,2.86917 -10.175,0.82825 -21.875,1.51526 -26,1.5267 l -7.5,0.0208 -14.76354,10.07334 c -8.11995,5.54034 -14.57607,10.37773 -14.34693,10.74975 0.4971,0.80711 8.5908,0.49342 21.61047,-0.83757 z m 15,-9.27578 c -2.80745,-1.41528 -3.76774,-4.847 -1.79826,-6.42628 0.71404,-0.57257 4.30341,-1.35304 7.97636,-1.73439 5.95166,-0.61793 6.90349,-0.46797 8.75,1.37855 2.58043,2.58042 2.59193,3.55186 0.0719,6.07189 -2.3553,2.35531 -10.93121,2.76136 -15,0.71023 z m 238,-44.52167 c 0,-0.44629 0.92068,-1.79967 2.04596,-3.00752 1.44026,-1.54594 2.74017,-2.02184 4.3909,-1.60753 1.30567,0.3277 2.65795,0.0821 3.05118,-0.55417 0.38843,-0.62849 1.74584,-1.53796 3.01647,-2.02106 1.45872,-0.5546 2.5659,-2.04239 3.00388,-4.03648 0.59133,-2.69232 0.21674,-3.65018 -2.53965,-6.49406 -2.12724,-2.19475 -3.01534,-3.90391 -2.59615,-4.99632 0.3795,-0.98895 -0.86147,-4.5123 -3.06876,-8.71278 -3.97643,-7.56717 -5.74635,-7.80812 -2.43935,-0.33209 2.72357,6.15706 6.33805,19.60328 5.70972,21.24068 -0.28129,0.73302 -1.58987,1.33277 -2.90796,1.33277 -2.99363,0 -7.23347,3.26244 -9.2119,7.0883 -1.34515,2.60123 -1.34302,2.9117 0.02,2.9117 0.83912,0 1.52568,-0.36515 1.52568,-0.81144 z"
       id="path3189"
       inkscape:connector-curvature="0" />
  </g>
  <g
     inkscape:groupmode="layer"
     id="Color-Fills"
     inkscape:label="Color-Fills">
    <g
       inkscape:groupmode="layer"
       id="Body"
       inkscape:label="Color-Body"
       style="display:inline">
      <path
         style="fill:#ff00f6;fill-opacity:1;stroke:#ff0000;stroke-width:0;stroke-linejoin:round;stroke-miterlimit:4;stroke-opacity:0;stroke-dasharray:none"
         d="m 216.85469,223.15897 c -0.10124,-0.83482 -0.27572,-5.97912 -0.38775,-11.43177 -0.12714,-6.18884 -0.40052,-11.04274 -0.72758,-12.91819 -2.24679,-12.88409 -8.95866,-21.78093 -20.65368,-27.37725 -4.18823,-2.00415 -6.91771,-2.22493 -27.55498,-2.22876 -30.49721,-0.006 -71.078821,2.85717 -93.194051,6.57442 -6.789872,1.14128 -8.948808,1.22247 -8.948808,0.33653 0,-1.45582 10.399225,-8.62166 27.5,-18.94954 35.452239,-21.4111 74.026119,-47.59373 88.392859,-59.998036 6.01472,-5.19314 10.30513,-8.278915 32.85714,-23.631685 16.30238,-11.098201 21.82397,-14.358054 31.46852,-18.578485 5.04954,-2.209664 7.74594,-3.086445 11.38862,-3.703211 7.61535,-1.289402 30.65773,-1.548266 34.94342,-0.392563 2.45865,0.663016 3.07588,1.29218 2.97329,3.030803 -0.10206,1.729643 0.45695,2.238752 3.58183,3.262108 4.07821,1.335558 4.2875,1.647765 6.18524,9.226882 1.33633,5.336962 2.30161,13.384009 2.30186,19.189461 3.6e-4,9.319522 -0.96125,13.1882 -7.1465,28.749996 -8.01229,20.15855 -11.51911,25.97338 -26.32087,43.64387 -3.50422,4.18337 -8.6904,10.49899 -11.52484,14.03471 -7.77547,9.69921 -16.1503,19.91251 -19.7677,24.10714 -6.27009,7.27063 -24.9611,28.57143 -25.07083,28.57143 -0.0611,0 -0.19396,-0.68304 -0.29519,-1.51786 l 0,0 z"
         id="path4718"
         inkscape:connector-curvature="0" />
      <path
         style="fill:#ffdaf6;fill-opacity:1;stroke:#ff0000;stroke-width:0;stroke-linejoin:round;stroke-miterlimit:4;stroke-opacity:0;stroke-dasharray:none"
         d="m 198.64841,242.60886 c -0.0959,-0.15524 0.68616,-1.60526 1.73801,-3.22227 1.05185,-1.61701 2.01499,-3.40683 2.14031,-3.97739 0.28731,-1.30813 -0.51047,-2.91427 -1.96032,-3.94666 -0.59521,-0.42383 -1.31768,-1.22596 -1.60549,-1.78252 -0.57516,-1.11225 -1.08683,-5.19848 -1.40909,-11.25319 -0.67534,-12.68843 -1.32639,-22.88334 -1.6307,-25.53572 -0.39125,-3.41005 -0.41522,-3.44209 -3.77693,-5.04616 -3.4019,-1.62326 -6.65292,-1.86622 -21.57779,-1.61257 -21.75675,0.36976 -37.41338,1.24639 -68.12656,3.81448 -43.804973,3.66276 -45.745804,3.96661 -52.151956,8.16482 -3.880434,2.54301 -4.364339,2.74282 -4.364339,1.80217 0,-1.72291 4.758145,-9.7807 6.870925,-11.63572 2.974588,-2.6117 14.423864,-5.06444 35.450504,-7.59443 25.734776,-3.09648 49.526066,-4.55043 80.357146,-4.91084 l 19.64285,-0.22962 2.85715,1.73711 c 6.04094,3.67282 8.98212,6.02146 11.14696,8.90125 4.08166,5.42966 5.69561,11.00982 6.56,22.68094 0.47894,6.46655 0.1761,18.01229 -0.58738,22.39477 -0.98782,5.67011 -3.03005,9.35848 -5.9697,10.78154 -1.57468,0.76229 -3.28509,0.98537 -3.6036,0.47001 l 0,0 z"
         id="path4720"
         inkscape:connector-curvature="0" />
    </g>
    <g
       inkscape:groupmode="layer"
       id="Feet"
       inkscape:label="Color-Feet"
       style="display:inline">
      <path
         style="fill:#f8f32e;fill-opacity:1;stroke:#ff0000;stroke-width:0;stroke-linejoin:round;stroke-miterlimit:4;stroke-opacity:0;stroke-dasharray:none"
         d="m 237.99934,257.5201 c -1.55636,-0.43714 -6.66289,-3.27361 -7.5025,-4.16733 -0.74942,-0.79772 -0.75502,-0.86491 -0.17384,-2.08366 0.33031,-0.69266 0.60056,-1.5622 0.60056,-1.93233 0,-1.1055 0.3965,-1.80281 1.02512,-1.80281 1.47242,0 8.44289,5.78616 8.83039,7.33007 0.42211,1.68183 -1.09323,3.12975 -2.77973,2.65606 z"
         id="path4727"
         inkscape:connector-curvature="0" />
      <path
         style="fill:#f8f32e;fill-opacity:1;stroke:#ff0000;stroke-width:0;stroke-linejoin:round;stroke-miterlimit:4;stroke-opacity:0;stroke-dasharray:none"
         d="m 221.31591,257.68308 c -1.00151,-1.09581 -1.82093,-2.30086 -1.82093,-2.67789 0,-0.97427 1.15664,-2.00506 2.74467,-2.44604 1.81659,-0.50444 2.31299,-0.48077 3.21849,0.15346 0.68142,0.47729 0.72468,0.68202 0.39619,1.875 -0.42942,1.55952 -1.91119,4.58952 -2.38877,4.88469 -0.1808,0.11174 -1.14814,-0.69341 -2.14965,-1.78922 z"
         id="path4729"
         inkscape:connector-curvature="0" />
      <path
         style="fill:#f8f32e;fill-opacity:1;stroke:#ff0000;stroke-width:0;stroke-linejoin:round;stroke-miterlimit:4;stroke-opacity:0;stroke-dasharray:none"
         d="m 229.21693,235.85924 c -0.4356,-0.86301 -1.06791,-3.48318 -1.32149,-5.47593 -0.25975,-2.04125 0.38355,-3.14298 1.48955,-2.55106 1.19586,0.64 2.96714,2.88295 2.96714,3.75725 0,0.99755 -1.80203,4.61413 -2.38654,4.78965 -0.23223,0.0697 -0.56913,-0.16422 -0.74866,-0.51991 z"
         id="path4731"
         inkscape:connector-curvature="0" />
      <path
         style="fill:#f8f32e;fill-opacity:1;stroke:#ff0000;stroke-width:0;stroke-linejoin:round;stroke-miterlimit:4;stroke-opacity:0;stroke-dasharray:none"
         d="m 301.63784,165.37924 c 0,-0.98718 1.98333,-4.08222 3.65936,-5.71055 2.20199,-2.13932 3.89923,-3.09961 6.04001,-3.41743 2.41605,-0.35868 3.15777,-0.98279 3.15777,-2.65703 0,-2.87336 -2.53046,-12.04644 -5.50353,-19.9506 -0.91564,-2.43433 -1.60414,-4.60398 -1.53,-4.82143 0.30214,-0.88615 4.71831,7.06293 6.01182,10.82125 0.36552,1.062 0.66457,2.57362 0.66457,3.35915 0,1.49614 0.75807,2.79038 3.07253,5.24566 1.71771,1.82222 2.36508,3.58647 1.96666,5.35971 -0.38085,1.695 -1.14363,2.95192 -2.26601,3.73393 -4.02289,2.80289 -4.58224,3.04921 -6.92419,3.04921 -2.18313,0 -2.36885,0.0694 -3.85872,1.44275 -0.86085,0.79351 -1.82909,1.99887 -2.15163,2.67857 -0.43393,0.91444 -0.81427,1.23583 -1.46254,1.23583 -0.48185,0 -0.8761,-0.16606 -0.8761,-0.36902 z"
         id="path4733"
         inkscape:connector-curvature="0" />
    </g>
    <g
       inkscape:groupmode="layer"
       id="Head"
       inkscape:label="Color-Head"
       style="display:inline">
      <path
         style="fill:#f8f32e;fill-opacity:1;stroke:#ff0000;stroke-width:0;stroke-linejoin:round;stroke-miterlimit:4;stroke-opacity:0;stroke-dasharray:none"
         d="m 29.852127,219.71985 c 0,-0.65661 6.413229,-5.34059 20.484084,-14.96081 l 7.805514,-5.33661 7.730202,-0.24831 c 8.1987,-0.26336 17.605553,-0.87404 44.158773,-2.86674 9.03571,-0.67809 18.73697,-1.34585 21.55835,-1.48391 l 5.12978,-0.25101 -0.45344,0.85576 c -0.2494,0.47066 -1.07039,1.83614 -1.82444,3.0344 -0.75405,1.19825 -1.46889,2.66812 -1.58854,3.26637 -0.50185,2.50924 2.38016,3.31007 9.48485,2.63556 5.41223,-0.51384 8.57402,-1.46701 9.83424,-2.9647 1.2149,-1.44382 0.98951,-2.54342 -0.87021,-4.24543 -1.29138,-1.18188 -2.08509,-1.53557 -5.37773,-2.3964 l -1.25,-0.3268 2.14285,-0.32363 c 1.17857,-0.17799 10.09822,-0.32362 19.82143,-0.32362 18.23885,0 19.28572,0.0773 19.28572,1.42417 0,0.69236 -2.54566,5.47127 -4.3457,8.15808 -0.81192,1.21191 -2.77789,3.84221 -4.36883,5.84512 -2.66036,3.34926 -3.00732,3.65598 -4.32119,3.82005 -0.78571,0.0981 -12.03571,0.35366 -25,0.56787 -38.18639,0.63098 -60.078935,1.30706 -70.357142,2.17275 -2.357143,0.19854 -9.589285,0.99495 -16.071428,1.76981 -18.659506,2.23051 -31.607143,3.12272 -31.607143,2.17803 z m 49.508646,-9.60447 c 1.99829,-1.03701 3.348497,-2.70799 3.348497,-4.14401 0,-0.86104 -0.36819,-1.53383 -1.462847,-2.67304 -1.745693,-1.81675 -2.624385,-2.19506 -5.07826,-2.18639 -2.093615,0.007 -8.567493,0.87426 -10.58374,1.41718 -1.833593,0.49374 -2.691158,1.5362 -2.647064,3.21779 0.06216,2.37061 1.956918,4.1722 5.307625,5.04666 0.589286,0.15379 3,0.23609 5.357143,0.1829 3.558571,-0.0803 4.535621,-0.2264 5.758646,-0.86109 l 0,0 z"
         id="path4736"
         inkscape:connector-curvature="0" />
      <path
         style="fill:#f8f32e;fill-opacity:1;stroke:#ff0000;stroke-width:0;stroke-linejoin:round;stroke-miterlimit:4;stroke-opacity:0;stroke-dasharray:none"
         d="m 29.60509,271.10197 c -2.905582,-1.17037 -3.812785,-8.16274 -4.614879,-35.56969 l -0.241495,-8.25169 9.962419,-0.21191 c 10.01341,-0.21299 12.182329,-0.38822 29.248135,-2.36293 13.149868,-1.52159 24.908432,-2.45915 36.07143,-2.87614 13.47334,-0.50329 55.99165,-0.88436 62.7331,-0.56224 l 5.59024,0.26712 0.23878,0.94617 c 0.13134,0.52039 0.32654,10.37332 0.43379,21.8954 l 0.19499,20.94923 -2.31186,0.24758 c -3.49826,0.37463 -3.6913,0.26765 -2.51017,-1.3911 l 0.98827,-1.38792 -0.0616,-17.41548 c -0.0677,-19.14857 0.017,-18.39812 -2.31868,-20.54794 -3.14251,-2.89244 -3.82929,-2.95143 -14.76262,-1.26808 -14.56461,2.24243 -21.88486,2.73166 -48.749996,3.25806 -42.751996,0.8377 -64.506601,2.78144 -70.009489,6.25526 -1.604539,1.01291 -1.651715,1.26071 -1.064834,5.59317 0.194838,1.43832 0.51676,7.9187 0.715384,14.40084 0.353065,11.52235 0.601681,14.13709 1.421905,14.95438 0.807322,0.80444 47.616738,0.0129 72.15132,-1.22005 4.02679,-0.20236 13.61765,-0.84412 21.31304,-1.42613 7.69538,-0.58201 15.20221,-1.0582 16.68184,-1.0582 3.26349,0 8.23706,0.69747 7.83308,1.09846 -0.891,0.88443 -7.83835,1.43086 -40.29225,3.16904 -49.41561,2.64664 -76.187176,3.50275 -78.63989,2.51479 l 0,0 z"
         id="path4738"
         inkscape:connector-curvature="0" />
      <path
         style="fill:#f8f32e;fill-opacity:1;stroke:#ff0000;stroke-width:0;stroke-linejoin:round;stroke-miterlimit:4;stroke-opacity:0;stroke-dasharray:none"
         d="m 50.20927,245.51264 c -1.908648,-0.29574 -3.928572,-0.9441 -3.928572,-1.26101 0,-0.35026 8.359976,-8.57358 9.596663,-9.43979 0.595686,-0.41723 5.578717,-0.56525 28.687123,-0.85212 43.583076,-0.54106 53.530926,-1.05441 66.489986,-3.43115 2.72379,-0.49955 5.30784,-0.81906 5.74234,-0.71 0.4345,0.10905 0.97827,0.61148 1.20837,1.1165 0.43293,0.95017 0.57452,6.44317 0.21271,8.25221 l -0.20566,1.02832 -11.84791,0.0369 c -21.25535,0.0662 -55.917247,2.01179 -88.276479,4.95511 -5.8485,0.53197 -6.139489,0.54353 -7.678571,0.30506 z"
         id="path4740"
         inkscape:connector-curvature="0" />
      <path
         style="fill:#f8f32e;fill-opacity:1;stroke:#ff0000;stroke-width:0;stroke-linejoin:round;stroke-miterlimit:4;stroke-opacity:0;stroke-dasharray:none"
         d="m 176.87068,257.10928 c -0.38403,-7.14213 -0.72323,-33.57542 -0.44957,-35.03369 0.18757,-0.99949 1.53666,-2.95757 5.18257,-7.522 2.71094,-3.39392 5.38922,-6.53278 5.95174,-6.97526 0.92752,-0.72959 1.0622,-0.75056 1.44635,-0.22521 1.1328,1.54919 3.37933,17.75956 3.44022,24.82371 0.0363,4.21588 -0.0593,5.07862 -0.76193,6.86921 -1.67013,4.2565 -13.36377,22.4165 -14.43449,22.4165 -0.0774,0 -0.24615,-1.95896 -0.37489,-4.35326 z"
         id="path4742"
         inkscape:connector-curvature="0" />
      <path
         style="fill:#f8f32e;fill-opacity:1;stroke:#ff0000;stroke-width:0;stroke-linejoin:round;stroke-miterlimit:4;stroke-opacity:0;stroke-dasharray:none"
         d="m 73.244984,250.77965 c -1.071339,-0.24122 -1.071354,-0.24126 -0.178571,-0.47744 2.173952,-0.57509 16.18622,-1.75196 37.857147,-3.17957 8.31873,-0.54801 28.34223,-0.5943 29.82142,-0.0689 1.04092,0.3697 1.0155,0.38677 -0.89285,0.59946 -1.94746,0.21705 -7.5767,0.68758 -24.10715,2.01503 -15.849604,1.27278 -39.084744,1.88042 -42.499996,1.11145 z"
         id="path4744"
         inkscape:connector-curvature="0" />
      <path
         style="fill:#f8f32e;fill-opacity:1;stroke:#ff0000;stroke-width:0;stroke-linejoin:round;stroke-miterlimit:4;stroke-opacity:0;stroke-dasharray:none"
         d="m 35.802251,243.33754 c -0.0899,-0.14732 -0.346654,-0.95089 -0.570558,-1.78571 -0.483199,-1.8016 0.01096,-4.18196 0.97185,-4.68142 1.049644,-0.54559 5.193612,-1.12275 7.963553,-1.10913 l 2.649317,0.013 -2.013324,1.8983 c -2.418864,2.28067 -7.520709,5.9328 -8.287836,5.9328 -0.302248,0 -0.623099,-0.12054 -0.713002,-0.26786 z"
         id="path4746"
         inkscape:connector-curvature="0" />
    </g>
  </g>
</svg>
